<svg width="189" height="32" viewBox="0 0 189 32" fill="none" xmlns="http://www.w3.org/2000/svg">
<path d="M50.4084 13.9964C50.3686 13.5954 50.1979 13.2839 49.8963 13.0618C49.5947 12.8397 49.1854 12.7287 48.6683 12.7287C48.317 12.7287 48.0204 12.7784 47.7784 12.8778C47.5365 12.974 47.3509 13.1082 47.2216 13.2805C47.0956 13.4529 47.0327 13.6484 47.0327 13.8672C47.026 14.0495 47.0642 14.2086 47.147 14.3445C47.2332 14.4804 47.3509 14.598 47.5 14.6974C47.6491 14.7936 47.8215 14.8781 48.017 14.951C48.2126 15.0206 48.4214 15.0803 48.6435 15.13L49.5582 15.3487C50.0024 15.4482 50.41 15.5807 50.7812 15.7464C51.1525 15.9122 51.474 16.116 51.7457 16.358C52.0175 16.5999 52.228 16.8849 52.3771 17.2131C52.5296 17.5412 52.6075 17.9174 52.6108 18.3416C52.6075 18.9647 52.4484 19.505 52.1335 19.9624C51.822 20.4164 51.3712 20.7694 50.7812 21.0213C50.1946 21.2699 49.487 21.3942 48.6584 21.3942C47.8364 21.3942 47.1205 21.2682 46.5107 21.0163C45.9041 20.7644 45.4302 20.3916 45.0888 19.8977C44.7507 19.4006 44.5734 18.7857 44.5568 18.0533H46.6399C46.6631 18.3946 46.7609 18.6797 46.9332 18.9084C47.1089 19.1338 47.3426 19.3045 47.6342 19.4205C47.9292 19.5331 48.2623 19.5895 48.6335 19.5895C48.9981 19.5895 49.3146 19.5365 49.5831 19.4304C49.8549 19.3243 50.0653 19.1768 50.2145 18.9879C50.3636 18.799 50.4382 18.5819 50.4382 18.3366C50.4382 18.108 50.3703 17.9157 50.2344 17.7599C50.1018 17.6042 49.9063 17.4716 49.6477 17.3622C49.3925 17.2528 49.0793 17.1534 48.7081 17.0639L47.5994 16.7855C46.741 16.5767 46.0632 16.2502 45.5661 15.8061C45.0689 15.362 44.822 14.7637 44.8253 14.0114C44.822 13.3949 44.986 12.8563 45.3175 12.3956C45.6522 11.9349 46.1113 11.5753 46.6946 11.3168C47.2779 11.0582 47.9408 10.929 48.6832 10.929C49.4389 10.929 50.0985 11.0582 50.6619 11.3168C51.2287 11.5753 51.6695 11.9349 51.9844 12.3956C52.2992 12.8563 52.4616 13.3899 52.4716 13.9964H50.4084ZM53.6618 11.0682H56.073L58.3947 15.4531H58.4942L60.8159 11.0682H63.2271L59.5134 17.6506V21.25H57.3756V17.6506L53.6618 11.0682ZM64.6025 11.0682H67.2574L70.0613 17.9091H70.1806L72.9846 11.0682H75.6395V21.25H73.5514V14.6229H73.4669L70.8319 21.2003H69.4101L66.7751 14.598H66.6906V21.25H64.6025V11.0682ZM77.6127 11.0682H80.2675L83.0715 17.9091H83.1908L85.9948 11.0682H88.6496V21.25H86.5615V14.6229H86.477L83.8421 21.2003H82.4202L79.7853 14.598H79.7007V21.25H77.6127V11.0682ZM90.6228 21.25V11.0682H97.4836V12.843H92.7755V15.2692H97.1306V17.044H92.7755V19.4751H97.5035V21.25H90.6228ZM99.0069 12.843V11.0682H107.369V12.843H104.252V21.25H102.124V12.843H99.0069ZM108.946 21.25V11.0682H112.963C113.732 11.0682 114.388 11.2057 114.932 11.4808C115.479 11.7526 115.895 12.1387 116.18 12.6392C116.468 13.1364 116.612 13.7214 116.612 14.3942C116.612 15.0703 116.466 15.652 116.175 16.1392C115.883 16.6231 115.46 16.9943 114.907 17.2528C114.357 17.5114 113.69 17.6406 112.908 17.6406H110.219V15.9105H112.56C112.971 15.9105 113.313 15.8542 113.584 15.7415C113.856 15.6288 114.058 15.4598 114.191 15.2344C114.327 15.009 114.395 14.7289 114.395 14.3942C114.395 14.0561 114.327 13.7711 114.191 13.5391C114.058 13.3071 113.854 13.1314 113.579 13.0121C113.308 12.8894 112.965 12.8281 112.55 12.8281H111.099V21.25H108.946ZM114.444 16.6165L116.975 21.25H114.599L112.123 16.6165H114.444ZM117.313 11.0682H119.724L122.046 15.4531H122.145L124.467 11.0682H126.878L123.164 17.6506V21.25H121.026V17.6506L117.313 11.0682ZM131.693 21.25V11.0682H133.846V19.4751H138.211V21.25H131.693ZM139.836 21.25V11.0682H146.697V12.843H141.989V15.2692H146.344V17.044H141.989V19.4751H146.717V21.25H139.836ZM152.217 21.25H148.608V11.0682H152.247C153.271 11.0682 154.153 11.272 154.892 11.6797C155.631 12.084 156.2 12.6657 156.597 13.4247C156.998 14.1837 157.199 15.0919 157.199 16.1491C157.199 17.2098 156.998 18.1212 156.597 18.8835C156.2 19.6458 155.628 20.2308 154.882 20.6385C154.14 21.0462 153.251 21.25 152.217 21.25ZM150.761 19.4055H152.128C152.764 19.4055 153.3 19.2929 153.734 19.0675C154.171 18.8388 154.499 18.4858 154.718 18.0085C154.94 17.5279 155.051 16.9081 155.051 16.1491C155.051 15.3968 154.94 14.782 154.718 14.3047C154.499 13.8274 154.173 13.4761 153.739 13.2507C153.304 13.0253 152.769 12.9126 152.133 12.9126H150.761V19.4055ZM165.745 14.3594C165.675 14.1174 165.577 13.9036 165.451 13.718C165.325 13.5291 165.171 13.37 164.989 13.2408C164.81 13.1082 164.604 13.0071 164.372 12.9375C164.144 12.8679 163.89 12.8331 163.612 12.8331C163.091 12.8331 162.634 12.9624 162.24 13.2209C161.848 13.4794 161.544 13.8556 161.325 14.3494C161.106 14.84 160.997 15.4399 160.997 16.1491C160.997 16.8584 161.104 17.4616 161.32 17.9588C161.535 18.456 161.84 18.8355 162.235 19.0973C162.629 19.3558 163.095 19.4851 163.632 19.4851C164.119 19.4851 164.535 19.3989 164.88 19.2266C165.228 19.0509 165.493 18.804 165.675 18.4858C165.861 18.1676 165.953 17.7914 165.953 17.3572L166.391 17.4219H163.766V15.8011H168.027V17.0838C168.027 17.9787 167.838 18.7476 167.46 19.3906C167.082 20.0303 166.562 20.5241 165.899 20.8722C165.236 21.2169 164.477 21.3892 163.622 21.3892C162.667 21.3892 161.829 21.1787 161.106 20.7578C160.384 20.3336 159.82 19.732 159.416 18.9531C159.015 18.1709 158.814 17.2429 158.814 16.169C158.814 15.3437 158.933 14.608 159.172 13.9616C159.414 13.312 159.752 12.7618 160.186 12.3111C160.621 11.8603 161.126 11.5173 161.703 11.282C162.279 11.0466 162.904 10.929 163.577 10.929C164.154 10.929 164.691 11.0135 165.188 11.1825C165.685 11.3482 166.126 11.5836 166.51 11.8885C166.898 12.1934 167.214 12.5563 167.46 12.9773C167.705 13.3949 167.862 13.8556 167.932 14.3594H165.745ZM169.843 21.25V11.0682H176.704V12.843H171.996V15.2692H176.351V17.044H171.996V19.4751H176.724V21.25H169.843ZM178.615 21.25V11.0682H182.632C183.401 11.0682 184.057 11.2057 184.601 11.4808C185.148 11.7526 185.564 12.1387 185.849 12.6392C186.137 13.1364 186.281 13.7214 186.281 14.3942C186.281 15.0703 186.135 15.652 185.844 16.1392C185.552 16.6231 185.129 16.9943 184.576 17.2528C184.026 17.5114 183.36 17.6406 182.577 17.6406H179.888V15.9105H182.229C182.64 15.9105 182.982 15.8542 183.254 15.7415C183.525 15.6288 183.727 15.4598 183.86 15.2344C183.996 15.009 184.064 14.7289 184.064 14.3942C184.064 14.0561 183.996 13.7711 183.86 13.5391C183.727 13.3071 183.524 13.1314 183.249 13.0121C182.977 12.8894 182.634 12.8281 182.219 12.8281H180.768V21.25H178.615ZM184.114 16.6165L186.644 21.25H184.268L181.792 16.6165H184.114Z" fill="white"/>
<path d="M0 2C0 0.89543 0.895431 0 2 0H13C14.1046 0 15 0.895431 15 2V13C15 14.1046 14.1046 15 13 15H2C0.89543 15 0 14.1046 0 13V2Z" fill="#009689"/>
<path d="M17 2C17 0.89543 17.8954 0 19 0H30C31.1046 0 32 0.895431 32 2V13C32 14.1046 31.1046 15 30 15H19C17.8954 15 17 14.1046 17 13V2Z" fill="#00786F"/>
<path d="M0 19C0 17.8954 0.895431 17 2 17H13C14.1046 17 15 17.8954 15 19V30C15 31.1046 14.1046 32 13 32H2C0.89543 32 0 31.1046 0 30V19Z" fill="#00786F"/>
<path d="M17 19C17 17.8954 17.8954 17 19 17H30C31.1046 17 32 17.8954 32 19V30C32 31.1046 31.1046 32 30 32H19C17.8954 32 17 31.1046 17 30V19Z" fill="#009689"/>
</svg>
